<svg width="16" height="16" viewBox="0 0 16 16" fill="none" xmlns="http://www.w3.org/2000/svg">
<g id="check-box / default">
<path id="Vector" d="M2.81498 14.6666C2.40757 14.6666 2.05868 14.5217 1.76831 14.2318C1.47843 13.9415 1.3335 13.5926 1.3335 13.1852V2.81479C1.3335 2.40739 1.47843 2.0585 1.76831 1.76813C2.05868 1.47825 2.40757 1.33331 2.81498 1.33331H13.1853C13.5928 1.33331 13.9416 1.47825 14.232 1.76813C14.5219 2.0585 14.6668 2.40739 14.6668 2.81479V13.1852C14.6668 13.5926 14.5219 13.9415 14.232 14.2318C13.9416 14.5217 13.5928 14.6666 13.1853 14.6666H2.81498ZM6.96313 10.7963C7.06189 10.7963 7.15448 10.781 7.2409 10.7503C7.32732 10.7192 7.40757 10.6666 7.48164 10.5926L11.6853 6.38887C11.8212 6.25307 11.8891 6.0864 11.8891 5.88887C11.8891 5.69134 11.815 5.5185 11.6668 5.37035C11.531 5.23455 11.3582 5.16665 11.1483 5.16665C10.9384 5.16665 10.7656 5.23455 10.6298 5.37035L6.96313 9.03702L5.35201 7.42591C5.21621 7.2901 5.04955 7.2222 4.85201 7.2222C4.65448 7.2222 4.48164 7.29628 4.3335 7.44442C4.19769 7.58023 4.12979 7.75307 4.12979 7.96294C4.12979 8.17282 4.19769 8.34566 4.3335 8.48146L6.44461 10.5926C6.51868 10.6666 6.59893 10.7192 6.68535 10.7503C6.77177 10.781 6.86436 10.7963 6.96313 10.7963Z" fill="#3E334E"/>
</g>
</svg>
